<svg width="109" height="109" viewBox="0 0 109 109" fill="none" xmlns="http://www.w3.org/2000/svg">
<g filter="url(#filter0_d_209_2)">
<circle cx="50.5" cy="50.5" r="22.5" fill="white"/>
</g>
<path d="M45.018 33.9594C41.4074 35.1868 38.2936 37.5165 36.134 40.6063C33.9744 43.696 32.8829 47.383 33.0196 51.1257C33.1564 54.8683 34.5144 58.4693 36.894 61.3998C39.2736 64.3302 42.5495 66.4357 46.2405 67.4069C49.2328 68.1635 52.3679 68.1967 55.3763 67.5037C58.1015 66.9038 60.6211 65.6207 62.6883 63.7799C64.8398 61.8056 66.4014 59.2939 67.2054 56.515C68.0789 53.493 68.2344 50.315 67.6599 47.2249H50.8564V54.0555H60.5879C60.3934 55.145 59.9766 56.1847 59.3625 57.1126C58.7483 58.0406 57.9495 58.8375 57.0137 59.4558C55.8255 60.2264 54.4859 60.7447 53.081 60.9774C51.6721 61.2342 50.2269 61.2342 48.818 60.9774C47.3899 60.6884 46.039 60.1108 44.8515 59.2815C42.9434 57.958 41.5107 56.0777 40.7578 53.9089C39.9925 51.6995 39.9925 49.3043 40.7578 47.0949C41.2938 45.5462 42.1797 44.1362 43.3495 42.97C44.6883 41.6109 46.3831 40.6395 48.2482 40.1622C50.1132 39.6849 52.0764 39.7202 53.9223 40.2643C55.3644 40.6979 56.6831 41.4558 57.7731 42.4776C58.8704 41.4078 59.9658 40.3353 61.0593 39.2601C61.624 38.6819 62.2394 38.1313 62.7956 37.5393C61.1314 36.0219 59.1781 34.8411 57.0476 34.0645C53.1677 32.684 48.9224 32.6469 45.018 33.9594Z" fill="white"/>
<path d="M45.0183 33.9594C48.9223 32.646 53.1676 32.6821 57.0478 34.0617C59.1787 34.8436 61.1311 36.0301 62.793 37.5531C62.2284 38.1452 61.6327 38.6985 61.0567 39.2739C59.9614 40.3455 58.8669 41.4134 57.7734 42.4776C56.6833 41.4558 55.3646 40.6979 53.9226 40.2643C52.0773 39.7183 50.1142 39.6809 48.2486 40.1563C46.3831 40.6316 44.6871 41.6013 43.3469 42.9589C42.1771 44.1251 41.2912 45.5352 40.7553 47.0838L34.9028 42.6435C36.9976 38.5728 40.6247 35.4589 45.0183 33.9594Z" fill="#E33629"/>
<path d="M33.3501 47.0424C33.6644 45.5146 34.1866 44.0351 34.9028 42.6436L40.7553 47.0949C39.9899 49.3043 39.9899 51.6995 40.7553 53.9089C38.8054 55.3844 36.8546 56.8673 34.9028 58.3575C33.1105 54.8615 32.5639 50.8782 33.3501 47.0424Z" fill="#F8BD00"/>
<path d="M50.8566 47.222H67.6602C68.2347 50.3121 68.0792 53.4901 67.2057 56.5121C66.4017 59.291 64.8401 61.8027 62.6886 63.777C60.7999 62.3329 58.9027 60.8998 57.014 59.4557C57.9504 58.8368 58.7496 58.0389 59.3637 57.11C59.9779 56.1811 60.3943 55.1403 60.5881 54.0499H50.8566C50.8538 51.7758 50.8566 49.4989 50.8566 47.222Z" fill="#587DBD"/>
<path d="M34.9 58.3574C36.8518 56.8819 38.8026 55.3991 40.7524 53.9088C41.5068 56.0783 42.9416 57.9587 44.8517 59.2814C46.0429 60.1069 47.3968 60.6798 48.8267 60.9635C50.2357 61.2203 51.6808 61.2203 53.0897 60.9635C54.4946 60.7308 55.8343 60.2125 57.0224 59.4419C58.9111 60.886 60.8083 62.3191 62.697 63.7632C60.6301 65.605 58.1105 66.8891 55.385 67.4898C52.3766 68.1828 49.2415 68.1496 46.2492 67.3929C43.8825 66.7737 41.6719 65.6821 39.7559 64.1865C37.7281 62.6085 36.0717 60.6202 34.9 58.3574Z" fill="#319F43"/>
<defs>
<filter id="filter0_d_209_2" x="0" y="0" width="109" height="109" filterUnits="userSpaceOnUse" color-interpolation-filters="sRGB">
<feFlood flood-opacity="0" result="BackgroundImageFix"/>
<feColorMatrix in="SourceAlpha" type="matrix" values="0 0 0 0 0 0 0 0 0 0 0 0 0 0 0 0 0 0 127 0" result="hardAlpha"/>
<feOffset dx="4" dy="4"/>
<feGaussianBlur stdDeviation="16"/>
<feComposite in2="hardAlpha" operator="out"/>
<feColorMatrix type="matrix" values="0 0 0 0 0 0 0 0 0 0 0 0 0 0 0 0 0 0 0.25 0"/>
<feBlend mode="normal" in2="BackgroundImageFix" result="effect1_dropShadow_209_2"/>
<feBlend mode="normal" in="SourceGraphic" in2="effect1_dropShadow_209_2" result="shape"/>
</filter>
</defs>
</svg>
